<svg xmlns="http://www.w3.org/2000/svg" width="330" height="100" viewBox="0 0 3310 996" version="1"><title>Transis</title><g id="Page-2" stroke="none" stroke-width="1" fill="none" fill-rule="evenodd"><g id="transis-+-Group" transform="translate(-97.000000, -51.000000)"><path d="M956 901C984 901 1011 893 1028 880L1022 802C1015 808 999 814 985 814 955 814 940 799 940 774 940 767 941 761 942 756L993 524 1085 524 1104 440 1013 440 1040 317 942 317 915 440 841 440 821 524 896 524 839 780C837 791 836 804 836 809 836 872 883 901 956 901L956 901ZM1196 889L1263 590C1290 556 1336 522 1382 522 1400 522 1416 525 1422 527L1444 429C1370 429 1343 440 1281 494L1296 440 1198 440 1098 889 1196 889ZM1421 715C1421 834 1490 901 1593 901 1650 901 1696 875 1734 830L1721 889 1818 889 1918 440 1820 440 1806 504C1776 457 1721 428 1657 428 1507 428 1421 575 1421 715ZM1790 578L1751 751C1725 786 1681 814 1634 814 1569 814 1523 768 1523 696 1523 602 1584 515 1672 515 1727 515 1769 544 1790 578ZM2302 889L2371 579C2373 570 2376 550 2376 542 2376 471 2322 428 2238 428 2172 428 2121 466 2084 501L2098 440 2000 440 1901 889 1998 889 2066 591C2095 561 2142 515 2196 515 2235 515 2271 534 2271 579 2271 589 2268 599 2267 607L2204 889 2302 889ZM2579 901C2697 901 2766 830 2766 747 2766 669 2686 641 2620 617 2573 601 2533 587 2533 560 2533 530 2562 507 2612 507 2668 507 2724 536 2745 566L2798 502C2760 459 2691 428 2615 428 2500 428 2436 498 2436 575 2436 650 2513 677 2579 700 2626 717 2668 732 2668 763 2668 794 2637 823 2587 823 2521 823 2459 786 2433 753L2376 820C2422 873 2497 901 2579 901L2579 901ZM2968 385C2998 385 3036 359 3036 316 3036 288 3012 264 2981 264 2950 264 2913 289 2913 332 2913 361 2936 385 2968 385L2968 385ZM2899 889L2998 440 2901 440 2801 889 2899 889ZM3188 901C3306 901 3375 830 3375 747 3375 669 3295 641 3229 617 3182 601 3142 587 3142 560 3142 530 3171 507 3221 507 3277 507 3333 536 3355 566L3407 502C3370 459 3301 428 3224 428 3109 428 3045 498 3045 575 3045 650 3123 677 3188 700 3235 717 3277 732 3277 763 3277 794 3247 823 3196 823 3130 823 3068 786 3043 753L2985 820C3031 873 3106 901 3188 901L3188 901Z" id="transis" fill="#3A3D40"/><g id="Group" transform="translate(423.052794, 565.520018) rotate(-333.000000) translate(-423.052794, -565.520018) translate(218.552794, 35.020018)"><path d="M229 658L242 658C247 658 250 655 250 650L250 523C250 518 247 515 242 515L176 515C172 515 168 518 168 523L168 650C168 655 172 658 176 658L190 658 190 1053C190 1057 193 1061 198 1061L221 1061C225 1061 229 1057 229 1053L229 658Z" id="Rectangle-6" fill="#3D3F42"/><g id="Path-+-Rectangle-6" transform="translate(332.481169, 687.043644) rotate(-9.000000) translate(-332.481169, -687.043644) translate(297.481169, 471.543644)" fill="#3D3F42"><rect id="Path" x="1" y="0" width="69" height="127" rx="8"/><rect id="Rectangle-6" x="15" y="109" width="39" height="322" rx="8"/></g><g id="Rectangle-6-+-Path" transform="translate(83.504430, 704.536783) rotate(-352.000000) translate(-83.504430, -704.536783) translate(48.504430, 483.536783)" fill="#3D3F42"><rect id="Rectangle-6" x="16" y="109" width="39" height="332" rx="8"/><rect id="Path" x="0" y="0" width="69" height="126" rx="8"/></g><path d="M34 51C34 51 159 15 220 19 277 23 388 75 388 75L388 473C388 473 254 525 194 527 133 529 24 484 24 484L34 51Z" id="Rectangle-18" fill="#E2FFF9"/><path d="M337 22C301 8 254 0 204 0 155 0 107 8 71 22 9 47 0 83 0 102L0 442C0 462 9 497 71 522 107 537 155 545 204 545 254 545 301 537 337 522 399 497 408 462 408 442L408 102C408 83 399 47 337 22L337 22ZM34 240C63 269 128 289 204 289 281 289 345 269 374 240L374 323C374 356 306 391 204 391 102 391 34 356 34 323L34 240 34 240ZM204 272C102 272 34 237 34 204L34 139C44 149 59 159 78 166 112 180 157 187 204 187 252 187 297 180 331 166 350 159 364 149 374 139L374 204C374 237 306 272 204 272L204 272ZM204 170C110 170 34 140 34 102 34 65 110 34 204 34 298 34 374 65 374 102 374 140 298 170 204 170L204 170ZM204 511C110 511 34 480 34 442L34 359C63 389 128 408 204 408 281 408 345 389 374 359L374 442C374 480 298 511 204 511L204 511Z" id="Shape" fill="#3D3F42"/></g></g></g></svg>
